<svg width="64" height="64" viewBox="0 0 64 64" fill="none" xmlns="http://www.w3.org/2000/svg">
<path opacity="0.21" fill-rule="evenodd" clip-rule="evenodd" d="M0 32V52C0 58.6274 5.37258 64 12 64H32H52C58.6274 64 64 58.6274 64 52V32V12C64 5.37258 58.6274 0 52 0H32H12C5.37258 0 0 5.37258 0 12V32Z" fill="#8280FF"/>
<path opacity="0.587821" fill-rule="evenodd" clip-rule="evenodd" d="M22.3112 25.3472C22.3112 28.3006 24.8582 30.6947 28 30.6947C31.1419 30.6947 33.6889 28.3006 33.6889 25.3472C33.6889 22.3939 31.1419 19.9998 28 19.9998C24.8582 19.9998 22.3112 22.3939 22.3112 25.3472ZM36.5335 30.6956C36.5335 32.9106 38.4438 34.7063 40.8002 34.7063C43.1566 34.7063 45.0669 32.9106 45.0669 30.6956C45.0669 28.4806 43.1566 26.685 40.8002 26.685C38.4438 26.685 36.5335 28.4806 36.5335 30.6956Z" fill="#8280FF"/>
<mask id="path-3-inside-1_201_2925" fill="white">
<path fill-rule="evenodd" clip-rule="evenodd" d="M27.9761 33.3657C21.2612 33.3657 15.752 36.6097 15.2008 42.9901C15.1707 43.3377 15.8778 44.0607 16.2345 44.0607H39.7285C40.7969 44.0607 40.8135 43.2525 40.7969 42.9912C40.3801 36.4314 34.7856 33.3657 27.9761 33.3657ZM48.5594 44.061H43.0755V44.0599C43.0755 41.0512 42.0182 38.2747 40.2337 36.0406C45.0781 36.0907 49.0334 38.3932 49.3311 43.2589C49.3431 43.4549 49.3311 44.061 48.5594 44.061Z"/>
</mask>
<path d="M15.2008 42.9901L11.2156 42.6458L15.2008 42.9901ZM40.7969 42.9912L36.8049 43.2448V43.2448L40.7969 42.9912ZM43.0755 44.061H39.0755V48.061H43.0755V44.061ZM40.2337 36.0406L40.2751 32.0409L31.8497 31.9537L37.1084 38.5371L40.2337 36.0406ZM49.3311 43.2589L45.3385 43.5032L45.3385 43.5032L49.3311 43.2589ZM19.1859 43.3345C19.3574 41.3498 20.2346 40.0027 21.5792 39.0564C23.0257 38.0383 25.2148 37.3657 27.9761 37.3657V29.3657C24.0225 29.3657 20.0996 30.3151 16.9749 32.5141C13.7484 34.7849 11.5954 38.25 11.2156 42.6458L19.1859 43.3345ZM16.2345 40.0607C16.8333 40.0607 17.2843 40.2044 17.5166 40.2934C17.7687 40.3899 17.9498 40.4944 18.0535 40.5599C18.256 40.6877 18.3773 40.8022 18.4429 40.8698C18.5067 40.9355 18.6279 41.07 18.7598 41.2976C18.8272 41.4138 18.9355 41.6196 19.0277 41.9046C19.1134 42.1696 19.2426 42.6778 19.1859 43.3345L11.2156 42.6458C11.0991 43.9938 11.659 45 11.8391 45.3105C12.1063 45.7714 12.421 46.1518 12.7023 46.4417C12.9855 46.7335 13.3486 47.0505 13.7831 47.3247C14.0865 47.5163 14.9911 48.0607 16.2345 48.0607V40.0607ZM39.7285 40.0607H16.2345V48.0607H39.7285V40.0607ZM36.8049 43.2448C36.7996 43.1605 36.7344 42.4392 37.2062 41.6227C37.4848 41.1405 37.9156 40.6909 38.4838 40.3916C39.0257 40.106 39.4945 40.0607 39.7285 40.0607V48.0607C41.4465 48.0607 43.168 47.295 44.1329 45.6252C44.876 44.3393 44.8108 43.0832 44.7888 42.7376L36.8049 43.2448ZM27.9761 37.3657C30.843 37.3657 33.0736 38.0195 34.5139 39.0122C35.8188 39.9114 36.6752 41.2038 36.8049 43.2448L44.7888 42.7376C44.5017 38.2188 42.3526 34.6985 39.0536 32.4249C35.8901 30.2448 31.9187 29.3657 27.9761 29.3657V37.3657ZM43.0755 48.061H48.5594V40.061H43.0755V48.061ZM39.0755 44.0599V44.061H47.0755V44.0599H39.0755ZM37.1084 38.5371C38.3609 40.1052 39.0755 42.012 39.0755 44.0599H47.0755C47.0755 40.0905 45.6755 36.4441 43.3591 33.5442L37.1084 38.5371ZM53.3236 43.0147C53.1035 39.4163 51.4586 36.519 48.8446 34.6123C46.3523 32.7944 43.2634 32.0718 40.2751 32.0409L40.1924 40.0404C42.0484 40.0596 43.3593 40.5133 44.1302 41.0756C44.7794 41.5491 45.261 42.2359 45.3385 43.5032L53.3236 43.0147ZM48.5594 48.061C50.2012 48.061 51.8403 47.2853 52.7344 45.6784C53.4053 44.4728 53.3419 43.3144 53.3236 43.0146L45.3385 43.5032C45.3322 43.3995 45.2688 42.6421 45.7438 41.7885C46.0236 41.2857 46.4688 40.7926 47.0871 40.4543C47.6835 40.1279 48.2288 40.061 48.5594 40.061V48.061Z" fill="#8280FF" mask="url(#path-3-inside-1_201_2925)"/>
</svg>
