<svg width="64" height="64" viewBox="0 0 64 64" fill="none" xmlns="http://www.w3.org/2000/svg">
<path opacity="0.21" fill-rule="evenodd" clip-rule="evenodd" d="M0 32V52C0 58.6274 5.37258 64 12 64H32H52C58.6274 64 64 58.6274 64 52V32V12C64 5.37258 58.6274 0 52 0H32H12C5.37258 0 0 5.37258 0 12V32Z" fill="#8DE3B7"/>
<path d="M44.608 42.3516C45.376 41.1196 45.808 39.6796 45.712 38.0956C45.504 34.6556 42.768 31.7436 39.36 31.3756C38.3511 31.2583 37.3287 31.3557 36.3601 31.6615C35.3915 31.9674 34.4985 32.4747 33.7399 33.1502C32.9813 33.8257 32.3742 34.654 31.9586 35.5808C31.5429 36.5076 31.328 37.5119 31.328 38.5276C31.328 42.5116 34.544 45.7276 38.512 45.7276C39.92 45.7276 41.232 45.3116 42.336 44.6076L46.192 48.4636C46.816 49.0876 47.84 49.0876 48.464 48.4636C49.088 47.8396 49.088 46.8156 48.464 46.1916L44.608 42.3516ZM38.528 42.5276C37.4671 42.5276 36.4497 42.1062 35.6996 41.3561C34.9494 40.6059 34.528 39.5885 34.528 38.5276C34.528 37.4668 34.9494 36.4493 35.6996 35.6992C36.4497 34.9491 37.4671 34.5276 38.528 34.5276C39.5889 34.5276 40.6063 34.9491 41.3564 35.6992C42.1066 36.4493 42.528 37.4668 42.528 38.5276C42.528 39.5885 42.1066 40.6059 41.3564 41.3561C40.6063 42.1062 39.5889 42.5276 38.528 42.5276Z" fill="#8DE3B7"/>
<path d="M37.7146 29.8294C36.5306 29.8614 35.3946 30.1174 34.3546 30.5494L33.4746 29.2214L28.5466 37.2374C28.415 37.4521 28.2345 37.6326 28.0199 37.7644C27.8052 37.8962 27.5625 37.9754 27.3115 37.9957C27.0604 38.016 26.8082 37.9767 26.5752 37.8811C26.3422 37.7854 26.1351 37.6361 25.9706 37.4454L22.5786 33.4934L17.6826 41.3334C17.1866 42.1174 16.1306 42.3254 15.3786 41.7814C14.7066 41.2854 14.5146 40.3574 14.9626 39.6374L21.0106 29.9574C21.5866 29.0454 22.8826 28.9494 23.5866 29.7654L26.9626 33.7014L32.0506 25.4294C32.1905 25.2008 32.3858 25.0111 32.6185 24.878C32.8511 24.7449 33.1135 24.6726 33.3815 24.6678C33.6494 24.663 33.9143 24.7259 34.1515 24.8506C34.3887 24.9754 34.5907 25.1579 34.7386 25.3814L37.7146 29.8294ZM41.8586 30.6294C40.8346 30.1814 39.7306 29.9094 38.5786 29.8454L45.8426 18.3414C46.3386 17.5574 47.3946 17.3654 48.1306 17.9094C48.8186 18.4054 48.9946 19.3494 48.5466 20.0534L41.8586 30.6294Z" fill="#4AD991"/>
</svg>
