<svg width="65" height="64" viewBox="0 0 65 64" fill="none" xmlns="http://www.w3.org/2000/svg">
<path opacity="0.21" fill-rule="evenodd" clip-rule="evenodd" d="M0.333252 32V52C0.333252 58.6274 5.70584 64 12.3333 64H32.3333H52.3333C58.9607 64 64.3333 58.6274 64.3333 52V32V12C64.3333 5.37258 58.9607 0 52.3333 0H32.3333H12.3333C5.70584 0 0.333252 5.37258 0.333252 12V32Z" fill="#FF6EB4"/>
<g clip-path="url(#clip0_201_2942)">
<path fill-rule="evenodd" clip-rule="evenodd" d="M37.9374 24.0343L32.8407 18.9375H31.1616L26.0624 24.0343L27.7416 25.7134L30.3374 23.1199V25.54H30.2899V26.623L30.3493 26.6254L30.3636 27.383C30.3731 27.8271 30.4111 28.2831 30.4823 28.7463C30.5536 29.2094 30.6462 29.6725 30.7602 30.138C30.8742 30.6011 31.0309 31.0975 31.2352 31.6271C31.6033 32.5273 32.0498 33.3419 32.5771 34.0758C33.1019 34.8096 33.6696 35.496 34.2752 36.1349C34.8808 36.7761 35.4817 37.4055 36.0802 38.0278C36.6739 38.65 37.2154 39.3126 37.6976 40.018C38.1797 40.7234 38.5716 41.4929 38.8708 42.3289C39.1677 43.1625 39.3173 44.122 39.3173 45.2098V47.3093H42.6874V45.2098C42.6855 44.0977 42.5532 42.9897 42.2932 41.9085C42.0678 40.998 41.727 40.1201 41.2791 39.296C40.8674 38.5433 40.3872 37.8301 39.8446 37.1656C39.3173 36.5244 38.7687 35.914 38.1987 35.3274C37.6287 34.7431 37.0801 34.1589 36.5528 33.5746C36.0271 32.9912 35.5475 32.3679 35.1183 31.7103C34.6802 31.0358 34.3343 30.3057 34.0899 29.5395C33.8243 28.6702 33.6961 27.7647 33.7099 26.8558V25.54H33.7076V23.165L36.2583 25.7158L37.9374 24.0343ZM29.7247 36.1349C29.9939 35.8507 30.2545 35.5584 30.5061 35.2585C29.9182 34.4038 29.4245 33.4881 29.0336 32.5273L29.0169 32.475C28.9377 32.2683 28.8625 32.06 28.7913 31.8504C28.3876 32.4584 27.9387 33.0331 27.4494 33.5746C26.9222 34.1589 26.3736 34.7431 25.8036 35.3274C25.2336 35.914 24.6873 36.5244 24.1577 37.1656C23.6328 37.8069 23.1531 38.5146 22.7232 39.2936C22.275 40.1193 21.9342 40.9988 21.7091 41.9109C21.4494 42.9914 21.3171 44.0985 21.3148 45.2098V47.3093H24.6873V45.2098C24.6873 44.1244 24.8346 43.1625 25.1338 42.3289C25.4307 41.4929 25.8226 40.7234 26.3047 40.018C26.7868 39.3126 27.3259 38.65 27.9244 38.0278C28.5206 37.4055 29.1214 36.7761 29.7294 36.1349H29.7247Z" fill="#EF5DA8"/>
</g>
<defs>
<clipPath id="clip0_201_2942">
<rect width="38.4" height="38.4" fill="white" transform="translate(13.1333 12.8)"/>
</clipPath>
</defs>
</svg>
