<svg width="64" height="64" viewBox="0 0 64 64" fill="none" xmlns="http://www.w3.org/2000/svg">
<path opacity="0.27" fill-rule="evenodd" clip-rule="evenodd" d="M0 32V52C0 58.6274 5.37258 64 12 64H32H52C58.6274 64 64 58.6274 64 52V32V12C64 5.37258 58.6274 0 52 0H32H12C5.37258 0 0 5.37258 0 12V32Z" fill="#FFC85D"/>
<path d="M17.9663 30.9406L16.7882 32.047C16.232 32.5694 15.352 32.5213 14.856 31.9414C14.3811 31.3861 14.4371 30.5533 14.9813 30.0658C16.9101 28.3384 20.4617 25.1352 23.3646 22.6097C28.1791 18.427 32.1213 14.9999 32.1351 14.9999C32.1518 14.9943 44.8916 26.0594 49.4633 30.0406C50.0318 30.5357 50.0862 31.3914 49.5936 31.962C49.0967 32.5376 48.2262 32.5986 47.654 32.0979L46.3313 30.9406L46.2969 38.0559L46.2626 45.178L46.1046 45.6245C45.8505 46.325 45.5552 46.7852 45.0332 47.3071C44.4701 47.8634 43.9137 48.1794 43.1651 48.3717C42.6844 48.4953 42.3959 48.509 39.9234 48.509H38.2236C37.8385 48.509 37.6371 48.0512 37.8973 47.7673C38.2751 47.3621 38.8039 46.7508 39.0855 46.4143C39.4036 46.0222 39.8778 45.7896 40.3826 45.7782L41.1116 45.7618L42.6363 45.7275L42.9179 45.5283C43.0964 45.4115 43.2681 45.2055 43.378 44.9857L43.5497 44.6355V36.5793V28.5299L37.8493 23.5781L32.1488 18.6262L26.4483 23.5781L20.7478 28.5299V36.5793V44.6355L20.9195 44.9857C21.0294 45.2055 21.2011 45.4115 21.3797 45.5283L21.6613 45.7275L23.186 45.7618L23.915 45.7782C24.4198 45.7896 24.894 46.0222 25.2121 46.4143C25.4937 46.7508 26.0225 47.3621 26.4002 47.7673C26.6605 48.0512 26.4591 48.509 26.0739 48.509H24.3742C21.9017 48.509 21.6132 48.4953 21.1325 48.3717C20.3838 48.1794 19.8275 47.8634 19.2644 47.3071C18.7424 46.7852 18.4471 46.325 18.1929 45.6245L18.035 45.178L18.0006 38.0627L17.9663 30.9406Z" fill="#FFD072"/>
<path d="M31.3452 29.6289C28.7491 29.8761 26.3522 31.5176 25.1571 33.8664C24.4978 35.1645 24.2917 36.0436 24.2917 37.5889C24.2917 38.6672 24.3398 39.0518 24.6145 39.9584C25.4044 42.6163 27.9661 45.8992 31.6818 49.0105C31.8947 49.189 32.1076 49.3333 32.1488 49.3333C32.19 49.3333 32.4029 49.189 32.6158 49.0105C35.5347 46.5654 37.8012 43.9556 38.9344 41.7372C39.7723 40.1026 40.0058 39.1823 40.0058 37.5889C40.0058 36.0436 39.7998 35.1645 39.1404 33.8664C37.9248 31.4764 35.5691 29.883 32.8631 29.622C32.1144 29.5464 32.135 29.5464 31.3452 29.6289ZM33.3644 32.4791C34.9097 32.8225 36.3108 34.045 36.9221 35.5766C37.3204 36.5587 37.4028 37.9804 37.1281 38.9969C36.977 39.5463 36.4413 40.6589 35.9949 41.3595C35.2463 42.527 33.7696 44.2578 32.5403 45.4185L32.135 45.7962L31.1254 44.766C29.0238 42.6232 27.8288 40.9062 27.2725 39.2441C26.5445 37.0601 27.3206 34.6082 29.1612 33.2964C30.3906 32.4173 31.8466 32.1357 33.3644 32.4791Z" fill="#FFBB33"/>
<path d="M31.6269 35.4872C31.1873 35.5902 30.7615 35.9062 30.4593 36.3182C29.7038 37.3828 30.1914 38.9075 31.4414 39.3745C32.6777 39.8347 34.0307 39.0036 34.1886 37.6781C34.2985 36.696 33.6117 35.7139 32.6433 35.4872C32.1763 35.3773 32.087 35.3773 31.6269 35.4872Z" fill="#FFBB33"/>
</svg>
