<svg width="64" height="64" viewBox="0 0 64 64" fill="none" xmlns="http://www.w3.org/2000/svg">
<path opacity="0.68" fill-rule="evenodd" clip-rule="evenodd" d="M0 32V52C0 58.6274 5.37258 64 12 64H32H52C58.6274 64 64 58.6274 64 52V32V12C64 5.37258 58.6274 0 52 0H32H12C5.37258 0 0 5.37258 0 12V32Z" fill="#FFE8DF"/>
<path fill-rule="evenodd" clip-rule="evenodd" d="M25.4086 20.2977C24.4384 20.1942 23.4573 20.2927 22.527 20.587C21.5967 20.8813 20.7375 21.3651 20.0034 22.0078C19.2693 22.6505 18.6762 23.4382 18.2614 24.3214C17.8467 25.2046 17.6193 26.1641 17.5936 27.1394C17.568 28.1148 17.7445 29.0849 18.1121 29.9887C18.4798 30.8925 19.0306 31.7104 19.7299 32.3908L19.7391 32.3998L31.5001 44.048L32.1771 43.371C32.7481 42.7999 33.674 42.7999 34.2451 43.371C34.8161 43.942 34.8161 44.8679 34.2451 45.439L32.5391 47.145C31.9699 47.7141 31.0479 47.7163 30.4761 47.1499L17.6855 34.4821C16.6991 33.521 15.9221 32.3664 15.4031 31.0907C14.8834 29.8129 14.6338 28.4414 14.6701 27.0624C14.7064 25.6834 15.0279 24.3269 15.6142 23.0783C16.2005 21.8297 17.0391 20.716 18.077 19.8073C19.1149 18.8987 20.3297 18.2148 21.6448 17.7987C22.96 17.3826 24.3471 17.2433 25.7188 17.3896C27.0905 17.5359 28.417 17.9647 29.6148 18.6489C30.3012 19.0409 30.9368 19.5119 31.5092 20.051C32.993 18.6645 34.8758 17.7528 36.9135 17.4607C39.5368 17.0846 42.2021 17.766 44.323 19.355C46.4439 20.944 47.8467 23.3105 48.2228 25.9337C48.5989 28.557 47.9174 31.2223 46.3284 33.3432C45.8442 33.9895 44.9277 34.1209 44.2814 33.6367C43.6351 33.1524 43.5037 32.2359 43.9879 31.5896C45.1118 30.0895 45.5938 28.2043 45.3278 26.3488C45.0618 24.4933 44.0696 22.8195 42.5694 21.6955C41.0693 20.5716 39.1841 20.0896 37.3286 20.3556C35.4731 20.6217 33.7993 21.6139 32.6753 23.114C32.3986 23.4834 31.9638 23.7004 31.5023 23.6995C31.0407 23.6986 30.6067 23.4799 30.3314 23.1095C29.7494 22.3264 29.0115 21.6723 28.1643 21.1884C27.3171 20.7044 26.3788 20.4012 25.4086 20.2977ZM40.0351 32.7067C40.8427 32.7067 41.4973 33.3614 41.4973 34.169V37.8247H45.1531C45.9606 37.8247 46.6153 38.4794 46.6153 39.287C46.6153 40.0946 45.9606 40.7493 45.1531 40.7493H41.4973V44.405C41.4973 45.2126 40.8427 45.8673 40.0351 45.8673C39.2275 45.8673 38.5728 45.2126 38.5728 44.405V40.7493H34.9171C34.1095 40.7493 33.4548 40.0946 33.4548 39.287C33.4548 38.4794 34.1095 37.8247 34.9171 37.8247H38.5728V34.169C38.5728 33.3614 39.2275 32.7067 40.0351 32.7067Z" fill="#FF6464"/>
</svg>
